# xmcd
#
# Track frame offsets:
#	183
#	15933
#	28283
#
# Disc length: 588 seconds
#
# Revision: 0
# Processed by: cddbd v1.5.2PL0 Copyright (c) Steve Scherf et al.
# Submitted via: audiograbber 1.83.01
#
DISCID=18024a03
DTITLE=Die Wildecker Herzbuben - Hallo Frau Nachbarin
DYEAR=1990
DGENRE=Schlager
TTITLE0=Hallo Frau Nachbarin
TTITLE1=Ist Das Nicht Himlisch
TTITLE2=Herzilein (Instromental)
EXTD=
EXTT0=
EXTT1=
EXTT2=
PLAYORDER=
